<svg width="24" height="24" viewBox="0 0 24 24" fill="none" xmlns="http://www.w3.org/2000/svg">
<path d="M23.9992 9.69471L23.7821 1.82942C23.7579 0.949956 23.05 0.242081 22.1705 0.217738L14.3051 0.000664645C13.8456 -0.0121841 13.4109 0.161681 13.087 0.485611L0.485815 13.0868C-0.160636 13.7333 -0.160636 14.7851 0.485815 15.4316L8.56824 23.5139C9.21615 24.1619 10.2649 24.1621 10.913 23.514L23.5142 10.9128C23.8349 10.5921 24.0117 10.1481 23.9992 9.69471ZM20.3978 7.58887C19.296 8.69061 17.5128 8.69072 16.411 7.58887C15.3118 6.48968 15.3118 4.70115 16.411 3.60201C17.5128 2.50021 19.296 2.50016 20.3978 3.60201C21.497 4.70115 21.497 6.48968 20.3978 7.58887Z" fill="white"/>
</svg>
